<?xml version="1.0" encoding="UTF-8"?>
<!-- Generated by Pixelmator Pro 3.6.6 -->
<svg width="24" height="24" viewBox="0 0 24 24" xmlns="http://www.w3.org/2000/svg">
    <g id="g1">
        <path id="path1" fill="#ffffff" stroke="none" opacity="0" d="M 1.714286 8.444171 L 22.613829 8.444171 L 22.613829 15.428572 L 1.714286 15.428572 Z"/>
        <path id="path2" fill="#ffffff" fill-opacity="0.85" stroke="none" d="M 12.066972 10.948634 C 12.294629 10.948634 12.495543 11.082565 12.609372 11.330331 L 13.332572 12.930778 C 14.136171 14.678572 15.602686 15.421829 17.216515 15.421829 C 19.573658 15.421829 21.2344 13.968725 21.616056 11.410691 L 21.743315 10.580332 C 21.877256 9.676314 22.41297 9.388366 22.41297 8.999975 C 22.41297 8.658457 22.165201 8.444171 21.703142 8.444171 C 19.593771 8.444171 17.678572 8.551314 16.540171 8.718725 C 14.149543 9.073634 13.212057 9.683011 12.066972 9.683011 C 10.9152 9.683011 9.977657 9.073634 7.587029 8.718725 C 6.448663 8.551314 4.53348 8.444171 2.430806 8.444171 C 1.96875 8.444171 1.714286 8.658457 1.714286 8.999975 C 1.714286 9.388366 2.256696 9.676314 2.390623 10.580332 L 2.517857 11.410691 C 2.892857 13.968725 4.553571 15.421829 6.917411 15.421829 C 8.531257 15.421829 9.997771 14.678572 10.794629 12.930778 L 11.524571 11.330331 C 11.631714 11.082565 11.832572 10.948634 12.066972 10.948634 Z"/>
    </g>
</svg>
