<?xml version="1.0" encoding="UTF-8"?>
<!-- Generated by Pixelmator Pro 3.6.6 -->
<svg width="24" height="24" viewBox="0 0 24 24" xmlns="http://www.w3.org/2000/svg">
    <g id="g1">
        <path id="path1" fill="#ffffff" stroke="none" opacity="0" d="M 1.714286 8.444171 L 22.613829 8.444171 L 22.613829 15.428572 L 1.714286 15.428572 Z"/>
        <path id="path2" fill="#ffffff" fill-opacity="0.85" stroke="none" d="M 22.41297 8.999975 C 22.41297 9.388366 21.877256 9.676314 21.743315 10.580332 L 21.616056 11.410691 C 21.2344 13.968725 19.573658 15.421829 17.216515 15.421829 C 15.602686 15.421829 14.136171 14.678572 13.332572 12.930778 L 12.609372 11.330331 C 12.495543 11.082565 12.294629 10.948634 12.066972 10.948634 C 11.832572 10.948634 11.631714 11.082565 11.524571 11.330331 L 10.794629 12.930778 C 9.997771 14.678572 8.531257 15.421829 6.917411 15.421829 C 4.553571 15.421829 2.892857 13.968725 2.517857 11.410691 L 2.390623 10.580332 C 2.256696 9.676314 1.714286 9.388366 1.714286 8.999975 C 1.714286 8.658457 1.96875 8.444171 2.430806 8.444171 C 4.53348 8.444171 6.448663 8.551314 7.587029 8.718725 C 9.977657 9.073634 10.9152 9.683011 12.066972 9.683011 C 13.212057 9.683011 14.149543 9.073634 16.540171 8.718725 C 17.678572 8.551314 19.593771 8.444171 21.703142 8.444171 C 22.165201 8.444171 22.41297 8.658457 22.41297 8.999975 Z M 3.495537 10.741046 C 3.495537 12.897297 4.714286 14.410686 6.924109 14.410686 C 8.872743 14.410686 10.011143 13.03792 10.011143 11.330331 C 10.011143 10.198634 8.537943 9.622743 5.544646 9.622743 C 4.131697 9.622743 3.495537 9.984349 3.495537 10.741046 Z M 14.116057 11.330331 C 14.116057 13.03792 15.261144 14.410686 17.203142 14.410686 C 19.412971 14.410686 20.631714 12.897297 20.631714 10.741046 C 20.631714 9.984349 20.002228 9.622743 18.582571 9.622743 C 15.589257 9.622743 14.116057 10.198634 14.116057 11.330331 Z"/>
    </g>
</svg>
